<svg viewBox="0 0 436 163" fill="none" xmlns="http://www.w3.org/2000/svg">
<g clip-path="url(#clip0_1_33)">
<path d="M1.12086 81.1212C2.12966 75.2926 4.03517 69.6882 6.61321 64.7563C10.8726 55.4529 19.2792 53.7716 27.2375 53.6595C40.464 53.7716 42.2574 53.9958 55.3718 53.6595C61.3125 53.4353 70.1675 53.6595 73.8664 46.5979C75.9961 43.0111 77.4533 38.5275 80.0313 35.389C87.3171 26.3099 103.346 27.4308 111.64 34.4923C115.9 38.0792 119.038 41.3297 120.719 47.3825C122.961 54.4441 123.41 65.0925 123.522 72.4904C123.522 80.0003 123.634 85.3806 122.065 92.3301C119.935 101.185 115.115 109.368 108.166 112.73C102.561 115.308 95.2753 115.308 88.9984 115.532C76.8928 115.757 75.4357 115.869 63.7784 115.532C59.2949 115.532 54.4751 116.765 51.3366 121.025C46.2926 126.965 44.6113 138.623 37.1013 139.744C29.8156 140.192 20.7364 141.089 13.4506 137.614C6.05276 133.355 2.6901 123.042 1.12086 113.739C-0.224202 102.979 -0.560468 91.7696 1.12086 81.2333V81.0091V81.1212ZM22.1935 113.179C23.3144 114.524 25.2199 114.748 27.9101 114.86C32.2815 114.972 38.5585 115.196 42.9299 115.308C48.9827 115.645 53.2421 113.627 56.7168 107.014C62.3213 96.7015 65.6839 89.8641 76.3324 90.2004C87.6533 89.8641 87.6533 92.4422 98.5259 89.0795C103.57 87.5103 104.467 82.13 104.579 75.5168C104.579 72.6025 104.579 69.5761 104.579 66.7739C104.355 52.7628 96.9567 54.4441 88.4379 54.4441C81.6005 55.0046 72.8576 52.0903 68.262 59.2639C63.8905 66.6618 61.7608 75.5168 53.5784 77.6465C50.8882 78.4311 47.9739 78.5432 45.1717 78.6553C38.7827 78.6553 43.4904 78.4311 36.8771 78.319C32.0573 78.6553 25.8925 77.086 22.1935 81.9058C19.9518 85.1564 19.9518 91.3213 19.9518 96.029C20.0638 101.073 19.6155 109.592 22.0814 113.179H22.1935Z" fill="black"/>
</g>
<path d="M416.492 98.1803C416.492 103.459 420.771 107.738 426.049 107.738C431.328 107.738 435.607 103.459 435.607 98.1803C435.607 92.9019 431.328 88.6229 426.049 88.6229C420.771 88.6229 416.492 92.9019 416.492 98.1803Z" fill="black"/>
<path d="M214.333 87.7609C214.308 87.7609 214.285 87.7627 214.262 87.7627C211.349 87.7627 200.57 86.5879 198.159 85.0597C195.747 83.5315 193.64 81.8885 192.207 79.311C190.774 76.7316 189.806 73.8679 189.806 70.7161C189.806 67.5644 190.762 64.7006 192.172 62.1213C193.58 59.5437 196.318 56.7082 201.063 55.0175C203.75 54.06 211.336 54.0441 214.297 54.0441C214.322 54.0441 214.345 54.0459 214.368 54.0459L214.333 33.7345C214.212 33.7345 207.648 33.7257 207.526 33.7257C201.846 33.7257 194.606 35.192 190.071 37.1477C185.534 39.1052 181.743 41.3294 179.063 44.1084C175.664 47.6346 172.89 51.569 170.934 56.104C168.979 60.6444 168 65.5151 168 70.7179C168 75.9207 168.979 80.7914 170.936 85.3265C172.894 89.8633 175.602 93.8612 179.065 97.3221C182.526 100.785 186.903 102.887 191.444 104.832C198.662 107.926 208.806 107.579 214.009 107.579C214.131 107.579 214.248 107.572 214.368 107.571L214.333 87.7609Z" fill="black"/>
<path d="M328.334 88.9905C325.947 83.4626 324.735 77.4683 324.735 71.1772C324.735 64.8861 325.947 58.8936 328.334 53.3604C329.136 51.5019 330.058 49.714 331.077 47.9933C331.026 47.9049 330.982 47.8148 330.931 47.7265C328.426 43.5254 325.069 40.1705 320.87 37.6636C316.669 35.1567 311.989 33.9041 306.832 33.9041C302.106 33.9041 297.748 34.9906 293.762 37.1618C289.775 39.3348 286.517 42.2357 283.985 45.8627C281.503 42.2339 278.256 39.3348 274.246 37.1618C270.235 34.9888 265.842 33.9041 261.068 33.9041C257.678 33.9041 254.454 34.4765 251.399 35.6231C248.343 36.7679 245.622 38.3685 243.235 40.4213V33.7928H221.751V107.526H243.235V67.7799C243.235 65.5363 243.783 63.5064 244.884 61.692C245.981 59.8776 247.449 58.4219 249.288 57.323C251.125 56.2242 253.143 55.6747 255.34 55.6747C257.538 55.6747 259.625 56.2242 261.464 57.323C263.301 58.4219 264.759 59.8776 265.833 61.692C266.907 63.5064 267.444 65.5363 267.444 67.7799V107.526H288.928V67.7799C288.928 65.5363 289.476 63.5064 290.577 61.692C291.674 59.8776 293.142 58.4219 294.981 57.323C296.818 56.2242 298.859 55.6747 301.104 55.6747C303.35 55.6747 305.376 56.2242 307.192 57.323C309.006 58.4219 310.462 59.8776 311.561 61.692C312.658 63.5064 313.208 65.5363 313.208 67.7799V107.526H334.692V99.5941C332.125 96.3734 329.989 92.8277 328.334 88.9905Z" fill="black"/>
<path d="M388.044 0H409.528V107.424H388.044V100.836C385.846 103.318 383.233 105.348 380.201 106.924C377.168 108.498 373.72 109.286 369.852 109.286C364.648 109.286 359.779 108.307 355.244 106.35C350.707 104.392 346.709 101.684 343.248 98.2214C339.785 94.7605 337.075 90.7625 335.12 86.2257C333.162 81.6907 332.183 76.8217 332.183 71.6171C332.183 66.4125 333.162 61.5436 335.12 57.0086C337.077 52.4735 339.785 48.4738 343.248 45.0129C346.709 41.552 350.707 38.8419 355.244 36.8845C359.779 34.927 364.649 33.9483 369.852 33.9483C373.72 33.9483 377.168 34.7238 380.201 36.275C383.233 37.8279 385.846 39.8684 388.044 42.3982V0ZM370.138 88.6602C373.098 88.6602 375.795 87.897 378.23 86.3688C380.666 84.8406 382.599 82.7878 384.032 80.2102C385.464 77.6309 386.18 74.7671 386.18 71.6154C386.18 68.4636 385.463 65.5999 384.032 63.0205C382.599 60.443 380.666 58.3901 378.23 56.8619C375.795 55.3355 373.098 54.5706 370.138 54.5706C367.179 54.5706 364.492 55.3355 362.082 56.8619C359.671 58.3919 357.761 60.443 356.353 63.0205C354.943 65.5999 354.24 68.4636 354.24 71.6154C354.24 74.7671 354.958 77.6309 356.389 80.2102C357.821 82.7878 359.742 84.8424 362.153 86.3688C364.563 87.897 367.225 88.6602 370.138 88.6602Z" fill="black"/>
<path d="M173.253 145.946H180.244C180.269 146.284 180.369 146.616 180.545 146.942C180.72 147.255 180.97 147.543 181.296 147.806C181.635 148.069 182.048 148.276 182.537 148.426C183.038 148.577 183.614 148.652 184.265 148.652C185.105 148.652 185.781 148.552 186.295 148.351C186.809 148.138 187.178 147.863 187.404 147.524C187.642 147.174 187.761 146.798 187.761 146.397C187.761 145.683 187.448 145.163 186.821 144.837C186.195 144.511 185.293 144.236 184.115 144.01L180.864 143.409C179.498 143.158 178.277 142.745 177.199 142.168C176.122 141.58 175.27 140.772 174.644 139.744C174.017 138.717 173.704 137.426 173.704 135.873C173.704 134.119 174.149 132.628 175.038 131.4C175.928 130.172 177.156 129.239 178.722 128.6C180.3 127.949 182.123 127.623 184.19 127.623C186.508 127.623 188.431 128.011 189.96 128.788C191.488 129.552 192.628 130.548 193.38 131.776C194.144 132.991 194.526 134.288 194.526 135.666H187.78C187.755 135.253 187.611 134.846 187.347 134.445C187.097 134.044 186.709 133.712 186.182 133.449C185.669 133.173 185.005 133.035 184.19 133.035C183.138 133.035 182.355 133.248 181.841 133.674C181.328 134.1 181.071 134.633 181.071 135.272C181.071 135.86 181.365 136.33 181.954 136.681C182.555 137.019 183.388 137.276 184.453 137.452L187.855 138.015C189.058 138.216 190.204 138.579 191.294 139.105C192.384 139.631 193.28 140.414 193.981 141.454C194.683 142.494 195.034 143.879 195.034 145.608C195.034 147.274 194.627 148.752 193.812 150.043C192.998 151.321 191.776 152.329 190.148 153.068C188.531 153.795 186.508 154.158 184.078 154.158C182.01 154.158 180.281 153.92 178.891 153.444C177.513 152.956 176.41 152.31 175.583 151.508C174.756 150.707 174.161 149.823 173.798 148.859C173.447 147.894 173.265 146.923 173.253 145.946ZM222.857 139.519C222.857 138.216 222.681 137.126 222.331 136.249C221.98 135.359 221.479 134.689 220.827 134.238C220.188 133.774 219.424 133.543 218.534 133.543C217.645 133.543 216.874 133.774 216.223 134.238C215.584 134.689 215.083 135.359 214.719 136.249C214.369 137.126 214.193 138.216 214.193 139.519V142.3C214.193 143.59 214.369 144.68 214.719 145.57C215.083 146.459 215.584 147.124 216.223 147.562C216.874 148 217.645 148.22 218.534 148.22C219.424 148.22 220.188 148 220.827 147.562C221.479 147.124 221.98 146.459 222.331 145.57C222.681 144.68 222.857 143.59 222.857 142.3V139.519ZM230.449 142.262C230.449 144.655 229.992 146.748 229.077 148.539C228.163 150.318 226.816 151.703 225.037 152.692C223.27 153.67 221.103 154.158 218.534 154.158C215.979 154.158 213.811 153.67 212.032 152.692C210.266 151.703 208.919 150.318 207.992 148.539C207.065 146.748 206.601 144.655 206.601 142.262V139.613C206.601 137.182 207.065 135.071 207.992 133.28C208.919 131.475 210.272 130.085 212.051 129.108C213.83 128.118 215.991 127.623 218.534 127.623C221.103 127.623 223.27 128.124 225.037 129.126C226.816 130.116 228.163 131.507 229.077 133.298C229.992 135.09 230.449 137.195 230.449 139.613V142.262ZM250.586 153.707H243.163V128.055H261.072V133.9H250.586V138.993H260.095V144.63H250.586V153.707ZM286.433 153.707H279.01V134.031H272.358V128.055H293.086V134.031H286.433V153.707ZM316.549 153.707H309.577L303.187 128.055H310.874L313.542 144.067H313.88L317.695 128.055H323.502L327.317 144.067H327.674L330.305 128.055H337.992L331.602 153.707H324.649L320.74 138.993H320.477L316.549 153.707ZM352.81 153.707H345.462L353.374 128.055H362.695L370.55 153.707H362.62L361.361 148.577H354.107L352.81 153.707ZM357.959 134.313H357.602L355.366 143.315H360.139L357.959 134.313ZM393.6 128.055C395.805 128.055 397.64 128.425 399.106 129.164C400.585 129.891 401.693 130.912 402.433 132.227C403.184 133.53 403.56 135.046 403.56 136.775C403.56 138.191 403.291 139.4 402.752 140.402C402.213 141.392 401.587 142.187 400.873 142.789C400.171 143.39 399.564 143.803 399.05 144.029L404.105 153.707H395.93L391.758 144.987H389.353V153.707H382.08V128.055H393.6ZM389.353 139.97H392.454C393.406 139.97 394.22 139.707 394.897 139.18C395.573 138.654 395.911 137.846 395.911 136.756C395.911 135.641 395.561 134.808 394.859 134.257C394.17 133.705 393.374 133.43 392.472 133.43H389.353V139.97ZM434.146 147.957V153.707H416.161V128.055H434.146V133.806H423.509V138.26H433.45V143.484H423.509V147.957H434.146Z" fill="black"/>
<defs>
<clipPath id="clip0_1_33">
<rect width="123.634" height="111.416" fill="white" transform="translate(0 29)"/>
</clipPath>
</defs>
</svg>
